<?xml version="1.0" encoding="UTF-8" standalone="no"?>
<svg
   xmlns:dc="http://purl.org/dc/elements/1.1/"
   xmlns:cc="http://creativecommons.org/ns#"
   xmlns:rdf="http://www.w3.org/1999/02/22-rdf-syntax-ns#"
   xmlns:svg="http://www.w3.org/2000/svg"
   xmlns="http://www.w3.org/2000/svg"
   xmlns:sodipodi="http://sodipodi.sourceforge.net/DTD/sodipodi-0.dtd"
   xmlns:inkscape="http://www.inkscape.org/namespaces/inkscape"
   width="176.42961"
   height="178.5993"
   viewBox="0 0 132.32221 133.94948"
   version="1.2"
   id="svg35"
   sodipodi:docname="pyladiesmadrid_geek.svg"
   inkscape:version="0.92.3 (2405546, 2018-03-11)"
   inkscape:export-xdpi="181.81818"
   inkscape:export-ydpi="181.81818">
  <metadata
     id="metadata41">
    <rdf:RDF>
      <cc:Work
         rdf:about="">
        <dc:format>image/svg+xml</dc:format>
        <dc:type
           rdf:resource="http://purl.org/dc/dcmitype/StillImage" />
        <dc:title></dc:title>
      </cc:Work>
    </rdf:RDF>
  </metadata>
  <defs
     id="defs39" />
  <sodipodi:namedview
     pagecolor="#ffffff"
     bordercolor="#666666"
     borderopacity="1"
     objecttolerance="10"
     gridtolerance="10"
     guidetolerance="10"
     inkscape:pageopacity="0"
     inkscape:pageshadow="2"
     inkscape:window-width="1842"
     inkscape:window-height="1051"
     id="namedview37"
     showgrid="false"
     inkscape:zoom="2.99"
     inkscape:cx="128.74805"
     inkscape:cy="57.486707"
     inkscape:window-x="69"
     inkscape:window-y="-9"
     inkscape:window-maximized="1"
     inkscape:current-layer="svg35"
     units="px"
     inkscape:pagecheckerboard="true"
     fit-margin-top="5"
     fit-margin-left="5"
     fit-margin-bottom="5"
     fit-margin-right="5" />
  <g
     id="g873"
     transform="translate(-32.838898,-9.900654)">
    <g
       transform="translate(1.5e-6)"
       id="g915">
      <path
         inkscape:connector-curvature="0"
         id="path2"
         d="m 158.29652,72.9458 c 0,32.74844 -26.54945,59.2979 -59.295148,59.2979 -32.748439,0 -59.29789,-26.54946 -59.29789,-59.2979 0,-32.745695 26.549451,-59.295146 59.29789,-59.295146 32.745698,0 59.295148,26.549451 59.295148,59.295146"
         style="fill:#990033;fill-opacity:1;fill-rule:nonzero;stroke:none;stroke-width:0.70249712" />
      <path
         inkscape:connector-curvature="0"
         id="path4"
         d="m 100.94422,60.116995 c -0.75189,-0.03019 -1.470856,-0.02744 -2.19805,-0.03293 -0.727194,0.0055 -1.446157,0.0027 -2.198048,0.03293 -37.465597,1.476342 -42.997762,28.890196 -42.997762,28.890196 0,0 10.864008,32.051429 19.927867,39.402949 5.21659,4.23145 18.484455,11.16038 25.267943,11.68999 6.78349,-0.52961 20.04861,-7.45854 25.2652,-11.68999 9.06386,-7.35152 19.92786,-39.402949 19.92786,-39.402949 0,0 -5.53216,-27.413854 -42.99501,-28.890196"
         style="fill:#ffffff;fill-opacity:1;fill-rule:nonzero;stroke:none;stroke-width:0.70249712" />
      <path
         inkscape:connector-curvature="0"
         id="path6"
         d="m 88.074251,109.3604 c 0,0 -4.258889,5.95476 -9.513896,5.95476 -5.255008,0 -9.513897,-5.95476 -9.513897,-5.95476 0,0 4.258889,-5.46082 9.513897,-5.46082 5.255007,0 9.513896,5.46082 9.513896,5.46082"
         style="fill:#ffffff;fill-opacity:1;fill-rule:nonzero;stroke:none;stroke-width:0.70249712" />
      <path
         inkscape:connector-curvature="0"
         id="path8"
         d="m 36.588897,96.657827 c 22.457954,1.292482 29.699711,-17.924656 29.699711,-17.924656 0,0 15.007643,11.50065 37.976012,17.987768 29.911,8.446431 57.14648,-12.477557 57.14648,-12.477557 0,0 -22.53204,-8.819633 -29.18655,-44.386293 C 110.20565,33.260202 79.043321,44.76908 61.00616,53.413088 42.971742,62.057095 49.692114,90.650929 36.588897,96.657827"
         style="fill:#990033;fill-opacity:1;fill-rule:nonzero;stroke:none;stroke-width:0.70249712" />
      <path
         inkscape:connector-curvature="0"
         id="path10"
         d="m 109.41535,109.3604 c 0,0 4.25888,5.95476 9.51389,5.95476 5.25501,0 9.5139,-5.95476 9.5139,-5.95476 0,0 -4.25889,-5.46082 -9.5139,-5.46082 -5.25501,0 -9.51389,5.46082 -9.51389,5.46082"
         style="fill:#ffffff;fill-opacity:1;fill-rule:nonzero;stroke:none;stroke-width:0.70249712" />
      <path
         inkscape:connector-curvature="0"
         id="path12"
         d="m 113.09522,107.05258 c 0,-0.45003 0.0576,-0.88909 0.15642,-1.31169 1.36109,-1.53397 3.35607,-2.50539 5.58979,-2.50539 2.35995,0 4.45921,1.08668 5.82029,2.77157 0.0631,0.34027 0.0988,0.68878 0.0988,1.04551 0,3.22161 -2.60968,5.83128 -5.83128,5.83128 -3.22161,0 -5.83402,-2.60967 -5.83402,-5.83128"
         style="fill:#211e1e;fill-opacity:1;fill-rule:nonzero;stroke:none;stroke-width:0.70249712" />
      <path
         inkscape:connector-curvature="0"
         id="path14"
         d="m 128.64894,109.81318 c 0,0 -2.88956,-4.49488 -8.80316,-5.62272 -5.9136,-1.12509 -10.43043,5.16994 -10.43043,5.16994 0,0 3.67987,-6.43224 7.86467,-7.51617 1.33913,-0.34576 3.00482,-0.18111 3.00482,-0.18111 0,0 2.43678,-1.00435 2.8045,-0.77659 0.37046,0.22502 -0.46375,1.35011 -0.46375,1.35011 0,0 2.75235,-1.10589 2.92798,-0.71897 0.17837,0.38693 -0.79305,1.74253 -0.79305,1.74253 0,0 3.42192,-2.08279 3.68262,-1.53397 0.26069,0.54883 -1.51202,2.39837 -1.51202,2.39837 0,0 5.59802,-2.63985 5.84774,-1.61629 0.2552,1.02082 -3.89392,4.06954 -3.89392,4.06954 0,0 7.14572,-2.82097 7.32134,-1.75624 0.17562,1.06198 -7.63142,5.4663 -7.63142,5.4663 z m 0,0"
         style="fill:#211e1e;fill-opacity:1;fill-rule:nonzero;stroke:none;stroke-width:0.70249712" />
      <path
         inkscape:connector-curvature="0"
         id="path16"
         d="m 117.15653,107.08277 c 0,0.83696 -0.67779,1.51751 -1.51201,1.51751 -0.83696,0 -1.51476,-0.68055 -1.51476,-1.51751 0,-0.83421 0.6778,-1.51201 1.51476,-1.51201 0.83422,0 1.51201,0.6778 1.51201,1.51201"
         style="fill:#ffffff;fill-opacity:1;fill-rule:nonzero;stroke:none;stroke-width:0.70249712" />
      <path
         inkscape:connector-curvature="0"
         id="path18"
         d="m 68.840648,109.81318 c 0,0 2.889569,-4.49488 8.803167,-5.62272 5.913599,-1.12509 10.43318,5.16994 10.43318,5.16994 0,0 -3.685366,-6.43224 -7.867419,-7.51617 -1.339135,-0.34576 -3.004822,-0.18111 -3.004822,-0.18111 0,0 -2.434042,-1.00435 -2.804499,-0.77659 -0.370458,0.22502 0.463757,1.35011 0.463757,1.35011 0,0 -2.752362,-1.10589 -2.927986,-0.71897 -0.178368,0.38693 0.793054,1.74253 0.793054,1.74253 0,0 -3.424673,-2.08279 -3.682622,-1.53397 -0.260692,0.54883 1.512016,2.39837 1.512016,2.39837 0,0 -5.59528,-2.63985 -5.84774,-1.61629 -0.25246,1.02082 3.89392,4.06954 3.89392,4.06954 0,0 -7.142969,-2.82097 -7.318593,-1.75624 -0.178369,1.06198 7.628679,5.4663 7.628679,5.4663 z m 0,0"
         style="fill:#211e1e;fill-opacity:1;fill-rule:nonzero;stroke:none;stroke-width:0.70249712" />
      <path
         inkscape:connector-curvature="0"
         id="path20"
         d="m 84.391629,107.05258 c 0,-0.45003 -0.05489,-0.88909 -0.153671,-1.31169 -1.361088,-1.53397 -3.358814,-2.50539 -5.589791,-2.50539 -2.359951,0 -4.45921,1.08668 -5.820298,2.77157 -0.06311,0.34027 -0.09879,0.68878 -0.09879,1.04551 0,3.22161 2.609667,5.83128 5.831275,5.83128 3.221607,0 5.831274,-2.60967 5.831274,-5.83128"
         style="fill:#211e1e;fill-opacity:1;fill-rule:nonzero;stroke:none;stroke-width:0.70249712" />
      <path
         inkscape:connector-curvature="0"
         id="path22"
         d="m 76.754717,107.08552 c 0,0.83695 -0.677799,1.51476 -1.512014,1.51476 -0.83696,0 -1.51476,-0.67781 -1.51476,-1.51476 0,-0.83696 0.6778,-1.51476 1.51476,-1.51476 0.834215,0 1.512014,0.6778 1.512014,1.51476"
         style="fill:#ffffff;fill-opacity:1;fill-rule:nonzero;stroke:none;stroke-width:0.70249712" />
      <path
         inkscape:connector-curvature="0"
         id="path24"
         d="m 96.441101,117.67511 c 0.642126,-0.38418 1.40225,-0.60645 2.222745,-0.60645 0.81775,0 1.577874,0.22227 2.222744,0.60645 0.48022,0.0741 0.93849,0.16739 1.35835,0.2799 -0.74915,-1.13881 -2.06908,-1.90443 -3.581094,-1.90443 -1.51476,0 -2.834686,0.76562 -3.583833,1.90443 0.419852,-0.11251 0.878121,-0.20581 1.361088,-0.2799"
         style="fill:#211e1e;fill-opacity:1;fill-rule:nonzero;stroke:none;stroke-width:0.70249712" />
      <path
         inkscape:connector-curvature="0"
         id="path26"
         d="m 69.927324,118.45993 c -0.12623,-0.0137 -3.081657,-0.91928 -5.556862,-3.51523 -3.325885,-3.49053 -3.131051,-6.08648 -3.314908,-6.84386 l 0.727194,1.41597 c 0.0055,0.0329 0.880866,2.71669 3.199655,4.73637 2.461484,2.14591 5.040965,3.19417 5.068407,3.19966 z m 0,0"
         style="fill:#211e1e;fill-opacity:1;fill-rule:nonzero;stroke:none;stroke-width:0.70249712" />
      <path
         inkscape:connector-curvature="0"
         id="path28"
         d="m 127.53757,118.45993 c 0.12623,-0.0137 3.08166,-0.91928 5.55687,-3.51523 3.32588,-3.49053 3.13105,-6.08648 3.3149,-6.84386 l -0.72719,1.41597 c -0.006,0.0329 -0.88086,2.71669 -3.19965,4.73637 -2.45874,2.14591 -5.04097,3.19417 -5.06841,3.19966 z m 0,0"
         style="fill:#211e1e;fill-opacity:1;fill-rule:nonzero;stroke:none;stroke-width:0.70249712" />
      <path
         inkscape:connector-curvature="0"
         id="path30"
         d="m 95.980087,117.12079 c -0.576267,-1.66294 -12.167469,-1.71233 -13.487395,-1.71233 -8.731819,0 -13.278842,0.69701 -13.520325,2.13768 0,4.55251 6.20722,10.11486 13.448978,10.11486 7.148456,0 13.287073,-5.41417 13.448977,-9.93101 0.197578,-0.2552 0.148183,-0.50217 0.109765,-0.6092 m -0.979654,0.76013 c 0,3.33137 -4.947665,8.46564 -11.519855,8.46564 -6.57219,0 -11.519854,-5.13427 -11.528087,-8.38606 0.225019,-0.49669 3.498765,-1.23486 11.593946,-1.23486 6.281312,0 10.501783,0.54334 11.453996,0.97417 z m 0,0"
         style="fill:#211e1e;fill-opacity:1;fill-rule:nonzero;stroke:none;stroke-width:0.70249712" />
      <path
         inkscape:connector-curvature="0"
         id="path32"
         d="m 101.59458,117.72999 c 0.1619,4.51684 6.30052,9.93101 13.44898,9.93101 7.24175,0 13.45171,-5.56235 13.45171,-10.11486 -0.24422,-1.44067 -4.79125,-2.13768 -13.52306,-2.13768 -1.31993,0 -12.91113,0.0494 -13.4874,1.71233 -0.0384,0.10703 -0.0878,0.354 0.10977,0.6092 m 0.86714,-0.0302 c 0.9577,-0.43083 5.17543,-0.97417 11.45674,-0.97417 8.09518,0 11.36893,0.73817 11.59395,1.23486 -0.008,3.25179 -4.9559,8.38605 -11.52809,8.38605 -6.57493,0 -11.5226,-5.13426 -11.5226,-8.46563 z m 0,0"
         style="fill:#211e1e;fill-opacity:1;fill-rule:nonzero;stroke:none;stroke-width:0.70249712" />
    </g>
  </g>
</svg>
