<svg id="svg35" xmlns="http://www.w3.org/2000/svg" viewBox="0 0 483.45 273.54"><defs><style>.cls-1{fill:#903;}.cls-2{fill:#211e1e;}</style></defs><title>pyladies</title><polygon class="cls-1" points="279.18 229.11 282.94 229.11 281.05 224.74 279.18 229.11"/><path class="cls-1" d="M295.86,224.27H293.7v7.43h2.16a3.57,3.57,0,0,0,3.79-3.69v0A3.58,3.58,0,0,0,295.86,224.27Z"/><path class="cls-1" d="M333.68,224.27h-2.15v7.43h2.15a3.57,3.57,0,0,0,3.8-3.69v0A3.58,3.58,0,0,0,333.68,224.27Z"/><path class="cls-1" d="M314.1,226.11v0c0-1.17-.84-1.81-2.27-1.81H309v3.67h2.81C313.22,227.94,314.1,227.22,314.1,226.11Z"/><polygon class="cls-1" points="365.72 123.73 361.4 123.73 365.72 136.1 365.72 123.73"/><polygon class="cls-1" points="377.44 110.51 367.22 110.51 367.22 122.23 381.81 122.23 377.44 110.51"/><path class="cls-1" d="M367.22,94.23h4.14L367.52,84v0l0-.05a1,1,0,0,0-.11-.17l-.06,0-.09-.07Z"/><path class="cls-1" d="M351.09,94.23h14.63V83.46l-17.34,0h0a.75.75,0,0,0-.7,1Z"/><polygon class="cls-1" points="367.22 109.01 376.88 109.01 371.92 95.73 367.22 95.73 367.22 109.01"/><polygon class="cls-1" points="356.25 109.01 365.72 109.01 365.72 95.73 351.62 95.73 356.25 109.01"/><polygon class="cls-1" points="356.78 110.51 360.87 122.23 365.72 122.23 365.72 110.51 356.78 110.51"/><polygon class="cls-1" points="320.54 122.23 320.54 110.51 310.32 110.51 305.94 122.23 320.54 122.23"/><polygon class="cls-1" points="322.04 122.23 326.88 122.23 330.97 110.51 322.04 110.51 322.04 122.23"/><path class="cls-1" d="M320.54,94.23V83.59l-.1.06-.06.06a1,1,0,0,0-.11.17l0,.05v0l-3.84,10.28Z"/><polygon class="cls-1" points="322.04 95.73 322.04 109.01 331.5 109.01 336.14 95.73 322.04 95.73"/><path class="cls-1" d="M322,94.23h14.62l3.42-9.8a.72.72,0,0,0-.09-.68.75.75,0,0,0-.61-.32h0l-17.34,0Z"/><polygon class="cls-1" points="315.83 95.73 310.88 109.01 320.54 109.01 320.54 95.73 315.83 95.73"/><polygon class="cls-1" points="326.36 123.73 322.04 123.73 322.04 136.08 326.36 123.73"/><path class="cls-1" d="M103.47,112.22h80.79a.76.76,0,0,0,.75-.75v-2.59a.76.76,0,0,0-.75-.75h-5.34v-2a3.65,3.65,0,1,0-7.3,0v2h-1.08v-2a3.66,3.66,0,0,0-7.31,0v2h-5.16a4.4,4.4,0,0,0-1-2.6,3.34,3.34,0,0,0-2.21-1.06,3.15,3.15,0,0,1-.26-2.33c.18-.29.6-.44,1.24-.44a.74.74,0,0,0,.75-.75V99.11a.74.74,0,0,0-.75-.75H150.7V93.94a.76.76,0,0,0-.75-.75h-1.28V92.1a.74.74,0,0,0-.75-.75H147a3.21,3.21,0,0,0-6.25,0h-.93a.74.74,0,0,0-.75.75v1.09h-1.28a.75.75,0,0,0-.75.75v4.42h-5.16a.75.75,0,0,0-.75.75V101a.75.75,0,0,0,.75.75c.65,0,1.07.15,1.25.44a3.21,3.21,0,0,1-.26,2.33,3.34,3.34,0,0,0-2.21,1.06,4.42,4.42,0,0,0-1,2.6h-5.16v-2a3.65,3.65,0,1,0-7.3,0v2h-1.08v-2a3.65,3.65,0,0,0-7.3,0v2h-5.34a.75.75,0,0,0-.75.75v2.59A.75.75,0,0,0,103.47,112.22Zm40.28-16A2.78,2.78,0,1,1,141,99,2.79,2.79,0,0,1,143.75,96.19Z"/><path class="cls-1" d="M414.65,136.26a6.69,6.69,0,0,0-.27-1.53,14.42,14.42,0,0,0-1.14-1.81c.74-.49,1.56-1.21,1.4-2.19a5.63,5.63,0,0,0-1-2.22,27.27,27.27,0,0,1-2.12-3.78c-.24-.66.18-1.5,0-2.18a7.92,7.92,0,0,0-1.14-2.63c-.17-.22.55-.83.62-1.14a1.85,1.85,0,0,0-.14-2.31c-.38-.3-.43-.79-1-.3-.23.33-.42.36-.53-.06a.52.52,0,0,0-.64-.42c-.34-.12-.49.06-.55.38a8.77,8.77,0,0,0-1.94-1.34c-1-.14-1.47.89-1.2,1.87a3.39,3.39,0,0,0,.73,1.8c.08.59,0,1.23.06,1.82a4.37,4.37,0,0,0,.76,1.51c.4.75-1.11.42-1.75-.68a12.12,12.12,0,0,0-.27-1.36,5.29,5.29,0,0,0-.73-.54.86.86,0,0,0-.36,0l0-4.67c5.51-.49,9.74-3.48,9.77-7.13,0-4-5.09-7.34-11.41-7.39s-11.48,3.15-11.51,7.19c0,3.66,4.16,6.72,9.65,7.31l-.16,19.17-1.75,2.64H387l-4.67-12.53H367.22v12.53H320.54V123.73H305.38l-4.67,12.53H276.57a53.51,53.51,0,0,0,23.27-32.06,51.44,51.44,0,0,0,4.43-2.93,22.84,22.84,0,0,1-3.45-1.86,54.41,54.41,0,0,0,.65-8.32,53.44,53.44,0,1,0-104.44,16,11.29,11.29,0,0,1-5.25,5.38,30.42,30.42,0,0,0,7.09-.39,53.7,53.7,0,0,0,20.61,24.19H182.8v-9.58a.75.75,0,0,0-.75-.75h-1.47V113.22H107.15v12.71h-1.47a.75.75,0,0,0-.75.75v9.58H91.5L88.66,80.79h2.39a.75.75,0,0,0,0-1.5H88.58L88.52,78h5.94a.75.75,0,1,0,0-1.5h-1V73.44a.71.71,0,0,0-.22-.53.75.75,0,0,0-.53-.22h-.77l-1.17-6.1A.74.74,0,0,0,90,66h-.73V59.17a.75.75,0,0,0-.75-.75H87.42V57.17h1.84a.75.75,0,0,0,0-1.5H87.42V35a.75.75,0,0,0-1.5,0V55.67H84.07a.75.75,0,0,0,0,1.5h1.85v1.25H84.81a.75.75,0,0,0-.75.75V66h-.73a.76.76,0,0,0-.74.61l-1.16,6.1h-.78a.76.76,0,0,0-.75.75v3.09H78.43a.75.75,0,0,0,0,1.5h6.39l-.06,1.26H82.55a.75.75,0,0,0,0,1.5h2.13l-2.84,55.47H0V273.54H483.45V136.26Zm-118.4,35.68c5.66-.19,5.33,8.19-.38,7.63C291.79,179.16,290.58,172.12,296.25,171.94Zm-88.13-63.4A27.54,27.54,0,0,0,218.55,96.3a110.78,110.78,0,0,0,34.22,16.21c12.62,3.57,24.71,1.33,34-2.06-3.19,8.53-10.14,25.7-16.2,30.62-4.7,3.81-16.66,10.06-22.77,10.54-6.11-.48-18.07-6.73-22.77-10.54C218.47,135.75,210.86,116.07,208.12,108.54Zm-36.79,6.91a2.31,2.31,0,1,1-2.31,2.31A2.31,2.31,0,0,1,171.33,115.45Zm-.82,8.25a3.66,3.66,0,0,1,3.65,3.66v8.43a.5.5,0,0,1-.5.5h-6.31a.5.5,0,0,1-.5-.5v-8.43A3.66,3.66,0,0,1,170.51,123.7Zm-5.42-8.25a2.31,2.31,0,1,1-2.3,2.31A2.31,2.31,0,0,1,165.09,115.45Zm-6.23,0a2.31,2.31,0,1,1-2.31,2.31A2.32,2.32,0,0,1,158.86,115.45Zm-3.28,11.91a3.66,3.66,0,1,1,7.31,0v8.43a.5.5,0,0,1-.5.5h-6.31a.5.5,0,0,1-.5-.5Zm-26.43-11.91a2.31,2.31,0,1,1-2.31,2.31A2.32,2.32,0,0,1,129.15,115.45Zm-12.47,0a2.31,2.31,0,1,1-2.31,2.31A2.31,2.31,0,0,1,116.68,115.45Zm4.08,20.34a.51.51,0,0,1-.5.5h-6.32a.51.51,0,0,1-.5-.5v-8.43a3.66,3.66,0,0,1,7.32,0Zm2.15-15.72a2.31,2.31,0,1,1,2.31-2.31A2.31,2.31,0,0,1,122.91,120.07ZM132,135.79a.51.51,0,0,1-.5.5h-6.32a.51.51,0,0,1-.5-.5v-8.43a3.66,3.66,0,0,1,7.32,0Zm18.56,0a.5.5,0,0,1-.5.5H137.42a.5.5,0,0,1-.5-.5v-13.5a6.84,6.84,0,1,1,13.67,0Zm119.79,97.66h-1.92v-7.84L265,230.76H265l-3.42-5.12v7.81h-1.89V222.52h2.05l3.32,5.17,3.33-5.17h2Zm14.37,0-1.11-2.64h-5.16l-1.13,2.64h-2l4.81-11H282l4.81,11ZM301.67,228a5.48,5.48,0,0,1-5.81,5.47h-4.08V222.52h4.08c3.43,0,5.81,2.36,5.81,5.43Zm12.46,5.47-2.69-3.81H309v3.81h-1.92V222.52H312a4.38,4.38,0,0,1,3.15,1.09,3.3,3.3,0,0,1,.91,2.36v0a3.28,3.28,0,0,1-2.59,3.31l3,4.14Zm9.43,0h-1.92V222.52h1.92ZM339.49,228a5.47,5.47,0,0,1-5.81,5.47h-4.07V222.52h4.07c3.44,0,5.81,2.36,5.81,5.43Zm-2.8-19.49c-3.07-1-3.65-1.47-3.69-1.7-2.27,3.35-10,3.68-12.66-.82-2.07,1.35-7,3.9-9.49,3.05s-4.55-1.14-6.54-4.68c-2.66,2.64-6.17,4.77-9.68,4.42s-4.24-4-5.66-5.72c0,0-3.47,6.69-10.75,6.22s-7.69-3.15-7.69-3.15-4.71,5.7-13.36.23c-3.15,5-8.91,0-8.91,0a9.35,9.35,0,0,1-11,.74c-2.49,1.8-8.27,3.28-12.44,1.23-3.22-1.58-3.32-3.54-3.67-6-1.55,1.47-3.23,3.44-5.38,4.55a22.83,22.83,0,0,1-5.95,1.63l-8.47,25H189.27l1.06-5,7.26-.56L204,208.59a39.5,39.5,0,0,1-7.86,0c-2.63-.5-2.09-13.92-1.57-15.9s-5.25,4-5.25,4-2.09,8-4.72,10.93-16.25,2-16.25,2l-6,23.77H156s10.17-46.13,8.07-48.62-6.27,2-6.27,2l-4.2-4c3-2.3,6.08-5.2,10.47-5.45,5-.06,6.75,5.24,5.78,9.44,0,0,10.48-5,14.67-3a6,6,0,0,1,3.67,6s4.47-6.79,8.66-6.29,3.41,6.52,3.41,12c0,3.73-1,7.37,2.62,6.71s7-18.48,7-18.48h6.29L212,201.45c.7.67,3.44-.85,5.08-3s2.12-5.8,2.12-5.8-1.57-33.32,9.88-33.88h.55c12.06.49,2.64,34.17-3.39,40.86,1.43,3.49,2.44,4.54,6.07,3,1.54-3.46.79-13,9-17.74,4.13-2.41,12.43-1.25,12.82,1.29,0,0-5.65,15.63-3.55,15.14,6.51,2,4.33-9.23,10-14.25,4.19-3.54,8.91-3,13.1-2.89l7.69-25.28,7.35-.06s-12.87,42.83-11.81,43.3,2.65,2.74,6.39-1.09c4.16-4.25,7.62-17.22,7.62-17.22h5.76s-5.52,18.21-1.33,17.71a14.5,14.5,0,0,0,7.29-3.35s-.76-14,7.65-15c9.09-1.1,7.92,10.41-2.61,17.88,1.57,3.39,9.62,3.24,11.79-.68s4.89-9.8,8.13-16.45l5.23,1.49-2.62,5.46c2.5,3.81,4.84,7.65,5.62,11.79,0,0,2.65,1.24,4,1.74C338.25,206.27,337.9,207.65,336.69,208.49Zm71.62-72.23H405l-1.66-2.61.07-8.26a5.56,5.56,0,0,0,1.38,1.58c.21.16.69,0,.72.35l.7,2.27a4.52,4.52,0,0,0,1,2c.29.27.58.52,0,.73-.55.74,1.74,2,1.82,2.32A4.44,4.44,0,0,1,408.31,136.26Z"/><path class="cls-1" d="M180.81,190.55c-3-.06-7.34,2.79-7.64,2.79l-2.6,9.48s6.53,1.41,9.7-.6c2.64-1.67,4.93-9,2.34-11.1A3,3,0,0,0,180.81,190.55Z"/><path class="cls-1" d="M324.42,201.78c-.28.83,4.7,3.35,6.12.87.56-1-2.6-7.38-2.6-7.38Z"/><path class="cls-1" d="M308.82,189h0c-1.2,1-2.24,4.21-2.26,6.42,0,0,4.7-5.87,4.51-6.52S310,188,308.82,189Z"/><path class="cls-1" d="M246.39,190.55c-3.95.07-7,6-6.56,9.26.33,2.54,3.84,1.79,5.15.05l2.67-9.11a3.53,3.53,0,0,0-1.26-.2Z"/><path class="cls-1" d="M229.65,166.84h-.16c-3.51.47-5.6,22.87-4.83,23.11C224.66,190,232.16,167,229.65,166.84Z"/><path class="cls-1" d="M269.76,190.27a7.15,7.15,0,0,0-5.24,2.06c-1.46,1.73-3.47,4.27-2.73,7.51.78,3.46,7.89,2.23,8.41.72l2.39-10C271.85,190,271.26,190.23,269.76,190.27Z"/><path d="M299.52,173.33a3.89,3.89,0,0,1-3.65,6.24l-.37-.08a3.65,3.65,0,0,0,2.48,1.36C303.25,181.37,303.92,174.27,299.52,173.33Z"/><path d="M242.17,201.42a1.76,1.76,0,0,1-.07-.33c-.38-2.9,1.92-7.78,5.15-9l.4-1.35a3.53,3.53,0,0,0-1.26-.2h0c-3.95.07-7,6-6.56,9.26A1.87,1.87,0,0,0,242.17,201.42Z"/><path d="M254.07,186.17s-5.65,15.63-3.55,15.14a4.29,4.29,0,0,0,1.81.2c.18-3.46,4-14.06,4-14.06-.13-.85-1.17-1.55-2.64-2A1.54,1.54,0,0,1,254.07,186.17Z"/><path d="M264.43,201.94a2.37,2.37,0,0,1-.37-.82c-.74-3.24,1.27-5.77,2.73-7.51a7.19,7.19,0,0,1,5.24-2.06h.32l.24-1c-.74-.53-1.33-.32-2.83-.28a7.15,7.15,0,0,0-5.24,2.06c-1.46,1.73-3.47,4.27-2.73,7.51A3,3,0,0,0,264.43,201.94Z"/><path d="M226.2,199.67c1,2.46,1.81,3.7,3.47,3.67a13.18,13.18,0,0,1-1.2-2.39c5.84-6.47,14.86-38.26,4.47-40.71C239.5,166.75,231.53,193.75,226.2,199.67Z"/><path d="M212,201.45c.42.4,1.57,0,2.78-.82l3.76-15.7h-2.58Z"/><path d="M197.33,208.74c.27.64.61,1,1,1.13a25.56,25.56,0,0,0,5.11.18l.48-1.46A48.56,48.56,0,0,1,197.33,208.74Z"/><path d="M230,170.4c.33-2.1.31-3.51-.3-3.56h-.16c-3.51.47-5.6,22.87-4.83,23.11,0,0,1.6-4.89,3.08-10.18A45.48,45.48,0,0,1,230,170.4Z"/><path d="M332.47,186l-2.35,4.9c2.5,3.81,4.84,7.65,5.62,11.79,0,0,1.09.51,2.21,1-.83-4-3.12-7.78-5.56-11.51l2.62-5.45Z"/><path d="M326.83,203.45a.46.46,0,0,1-.14-.39l2.61-4.82c-.67-1.58-1.36-3-1.36-3l-3.52,6.51C324.28,202.19,325.45,203,326.83,203.45Z"/><path d="M276.82,202.13a6.49,6.49,0,0,0,2.21,1.06c-.08-3.3,11.87-43.08,11.87-43.08l-2.66,0C286.1,167.31,275.87,201.71,276.82,202.13Z"/><path d="M307.59,201a4.22,4.22,0,0,0,2.84,2.08,3,3,0,0,1-.57-.8c9.32-6.61,11.3-16.37,5.34-17.77C318.06,187.74,315.4,195.49,307.59,201Z"/><path d="M296.22,185.1c-1.16,4.14-4.47,16.85-1,16.43a7.93,7.93,0,0,0,.85-.14c-.91-4.21,2.75-16.29,2.75-16.29Z"/><path d="M308.82,189h0c-1.2,1-2.24,4.21-2.26,6.42,0,0,4.7-5.87,4.51-6.52S310,188,308.82,189Z"/><path d="M304.31,204.34c-2.66,2.64-6.17,4.77-9.68,4.42-.19,0-.37-.06-.55-.09A4.48,4.48,0,0,0,296.9,210c3.16.32,6.32-1.38,8.87-3.65A10.14,10.14,0,0,1,304.31,204.34Z"/><path d="M289,203s-3.47,6.69-10.75,6.22a17.59,17.59,0,0,1-4.76-.85c.83.81,2.73,1.86,7,2.14a11.49,11.49,0,0,0,10-5A18.21,18.21,0,0,0,289,203Z"/><path d="M270.53,206.11s-4.71,5.7-13.36.23c-1.72,2.72-4.22,2.46-6.13,1.68,1.47,1.07,5.81,3.69,8.4-.39,7,4.42,11.41,1.54,12.85.27C270.68,207,270.53,206.11,270.53,206.11Z"/><path d="M339.53,204.63c-1.3,1.75-1.68,3.06-2.84,3.86-3.07-1-3.65-1.47-3.69-1.7-1.57,2.31-5.76,3.18-9.07,2,3.3,2.79,9.37,2.16,11.34-.74,0,.24.62.74,3.69,1.71,1.21-.84,1.56-2.23,3-4.11C341.32,205.43,340.35,205,339.53,204.63Z"/><path d="M248.26,206.34a9.35,9.35,0,0,1-11,.74c-2.35,1.7-7.64,3.11-11.73,1.54a8.24,8.24,0,0,0,1.56,1c4.17,2,9.95.57,12.44-1.23a9.29,9.29,0,0,0,10.88-.63A11.45,11.45,0,0,1,248.26,206.34Z"/><path d="M320.34,206c-2.07,1.35-7,3.9-9.49,3.05-.76-.26-1.48-.47-2.16-.72a12.37,12.37,0,0,0,4.43,2c2.28.77,6.45-1.21,8.77-2.6A5.86,5.86,0,0,1,320.34,206Z"/><path d="M200.29,195.42c0,3.61-1,7.13,2.3,6.75-.36-1.29,0-3.36,0-5.46,0-5.49.78-11.5-3.4-12C200.73,186.85,200.29,191.29,200.29,195.42Z"/><path d="M173.09,203.19l2.35-8.57c.3,0,4.63-2.85,7.64-2.78h.11a2.6,2.6,0,0,0-.58-.73,3,3,0,0,0-1.8-.57c-3-.06-7.34,2.79-7.64,2.79l-2.6,9.48A23.94,23.94,0,0,0,173.09,203.19Z"/><path d="M169.88,186.73s1-.48,2.52-1.08c0-3.07-1.44-6.09-4.4-6.88C170,180.63,170.53,183.92,169.88,186.73Z"/><path d="M188.22,189.71a24.47,24.47,0,0,1,1.55-2,6.29,6.29,0,0,0-3-2.66,3.35,3.35,0,0,0-.65-.24A5.91,5.91,0,0,1,188.22,189.71Z"/><path d="M194.21,195.36a18,18,0,0,1,.31-2.67c.52-2-5.25,4-5.25,4s-2.09,8-4.72,10.93-16.25,2-16.25,2l-6,23.77h-3.74l-.28,1.28h6.29l6-23.77s13.63,1,16.25-2S191.54,198,191.54,198,192.88,196.57,194.21,195.36Z"/><path d="M221.14,202.28c-1.55,1.47-3.23,3.44-5.38,4.55a22.83,22.83,0,0,1-5.95,1.63l-8.47,25h-9.52l-.28,1.28h12.07l8.47-25a23.27,23.27,0,0,0,5.95-1.63,16.32,16.32,0,0,0,3.7-2.89A14.13,14.13,0,0,1,221.14,202.28Z"/><path d="M158.28,186.28,160.1,188s2.2-2.35,4.21-2.69a1.36,1.36,0,0,0-.21-.58C162.42,182.75,159.41,185.22,158.28,186.28Z"/><path class="cls-2" d="M275,121.4s3.74-2.75,3.51-3.67-5.27,1.46-5.27,1.46,1.6-1.67,1.36-2.17-3.32,1.39-3.32,1.39.88-1.23.72-1.57-2.64.64-2.64.64.75-1,.42-1.21-2.53.7-2.53.7a9.19,9.19,0,0,0-2.71.16c-3.77,1-7.09,6.77-7.09,6.77a14.64,14.64,0,0,1,3.46-3.24,5,5,0,0,0-.14,1.16,5.26,5.26,0,1,0,10.51,0,4.8,4.8,0,0,0-.08-.85,12.54,12.54,0,0,1,3.59,3.34l-.07.43s7-4,6.88-4.93S275,121.4,275,121.4ZM263,123.22a1.37,1.37,0,1,1,1.36-1.37A1.37,1.37,0,0,1,263,123.22Z"/><path class="cls-2" d="M238.19,123.9s-3.33-5.79-7.1-6.77a9.12,9.12,0,0,0-2.7-.16s-2.2-.91-2.53-.7.42,1.21.42,1.21-2.48-1-2.64-.64.71,1.57.71,1.57-3.08-1.88-3.32-1.39,1.37,2.17,1.37,2.17-5-2.38-5.27-1.46,3.51,3.67,3.51,3.67-6.44-2.55-6.6-1.59,6.88,4.93,6.88,4.93l-.07-.43a12.58,12.58,0,0,1,3.58-3.34,6,6,0,0,0-.08.85,5.26,5.26,0,1,0,10.51,0,5,5,0,0,0-.13-1.16A14.64,14.64,0,0,1,238.19,123.9Zm-11.57-.68a1.37,1.37,0,1,1,1.36-1.37A1.37,1.37,0,0,1,226.62,123.22Z"/><path class="cls-2" d="M281.74,122.77l-.65,1.27a10.67,10.67,0,0,1-2.89,4.27,18.16,18.16,0,0,1-3.83,2.55c-1-1-5-1.51-11.95-1.51-1.18,0-11.56.05-12.14,1.53a3.9,3.9,0,0,0-5-.07c-.88-1.41-10.94-1.46-12.11-1.46-7,0-11,.5-12,1.51a18.69,18.69,0,0,1-3.83-2.55,10.46,10.46,0,0,1-2.88-4.27l-.66-1.27a9.5,9.5,0,0,0,3,6.17,12.71,12.71,0,0,0,4.19,2.87c.45,4,5.83,8.59,12.08,8.59,6.41,0,11.92-4.84,12.11-8.9l.52-.1a3.93,3.93,0,0,1,4,0c.23,0,.43.09.65.13.21,4.05,5.71,8.87,12.11,8.87,6.25,0,11.63-4.6,12.08-8.59a12.59,12.59,0,0,0,4.18-2.87A9.45,9.45,0,0,0,281.74,122.77Zm-37.32,8.81c0,3-4.45,7.63-10.38,7.63s-10.38-4.63-10.39-7.56c.21-.44,3.16-1.11,10.45-1.11,5.66,0,9.47.49,10.32.88Zm17.11,7.63c-5.92,0-10.38-4.63-10.38-7.63v-.16c.86-.39,4.66-.88,10.32-.88,7.3,0,10.25.67,10.45,1.11C271.91,134.58,267.46,139.21,261.53,139.21Z"/></svg>