<svg id="svg35" xmlns="http://www.w3.org/2000/svg" viewBox="0 0 400 400"><defs><style>.cls-1{fill:#903;}</style></defs><title>pyladies</title><path class="cls-1" d="M0,400H400V0H0ZM242.14,254.52H239v-12.7l-5.59,8.35h-.1l-5.54-8.3v12.65h-3.06V236.81h3.31l5.39,8.37,5.39-8.37h3.31Zm23.29,0-1.79-4.28h-8.38l-1.82,4.28h-3.19l7.8-17.84h2.88l7.79,17.84Zm27.41-8.86c0,5-3.84,8.86-9.41,8.86h-6.6V236.81h6.6c5.57,0,9.41,3.82,9.41,8.8Zm20.21,8.86-4.36-6.18H304.8v6.18h-3.11V236.81h7.89a7.1,7.1,0,0,1,5.11,1.77,5.34,5.34,0,0,1,1.47,3.82v0a5.32,5.32,0,0,1-4.2,5.36l4.78,6.71Zm15.29,0h-3.11V236.81h3.11Zm25.81-8.86c0,5-3.85,8.86-9.41,8.86h-6.61V236.81h6.61c5.56,0,9.41,3.82,9.41,8.8Zm-70.09-90.83c9.18-.29,8.64,13.28-.6,12.37C276.84,166.54,274.88,155.13,284.06,154.83ZM69.9,163.5c8.07-.08,10.94,8.5,9.36,15.3,0,0,17-8.06,23.79-4.84a9.72,9.72,0,0,1,5.94,9.67s7.24-11,14-10.19,5.52,10.56,5.52,19.46c0,6-1.69,11.93,4.26,10.86s11.38-29.94,11.38-29.94h10.2l-6.91,28.85c1.12,1.07,5.57-1.38,8.23-4.81s3.44-9.39,3.44-9.39-2.55-54,16-54.92h0c.29,0,.59,0,.89,0,19.54.81,4.28,55.39-5.5,66.23,2.32,5.66,4,7.36,9.84,4.78,2.49-5.61,1.28-21,14.56-28.75,6.69-3.91,20.14-2,20.76,2.09,0,0-9.15,25.33-5.75,24.53,10.56,3.28,7-15,16.16-23.08,6.8-5.74,14.44-4.82,21.24-4.69l12.46-41,11.91-.1S250.86,203,252.58,203.76s4.29,4.44,10.36-1.77c6.74-6.88,12.35-27.9,12.35-27.9h9.33s-8.95,29.51-2.15,28.7a23.44,23.44,0,0,0,11.81-5.42s-1.23-22.7,12.4-24.35c14.73-1.78,12.84,16.86-4.23,29,2.54,5.5,15.58,5.25,19.1-1.09s7.94-15.89,13.17-26.66l8.49,2.42L339,185.5c4.06,6.18,7.86,12.4,9.13,19.11,0,0,4.29,2,6.41,2.82-2.36,3-2.92,5.29-4.89,6.65-5-1.57-5.91-2.39-6-2.77-3.69,5.43-16.26,6-20.52-1.32-3.35,2.19-11.28,6.32-15.38,4.94s-7.38-1.84-10.59-7.58c-4.32,4.28-10,7.73-15.7,7.15s-6.86-6.49-9.17-9.27c0,0-5.63,10.85-17.43,10.09s-12.46-5.1-12.46-5.1-7.64,9.23-21.65.37c-5.1,8-14.44,0-14.44,0s-8.07,7.24-17.84,1.2c-4,2.92-13.41,5.31-20.16,2-5.22-2.56-5.39-5.73-5.94-9.77-2.52,2.38-5.24,5.57-8.73,7.38S144,214,144,214l-13.72,40.49H110.7l1.7-8.08,11.78-.89,10.3-31.32s-8.5.8-12.74,0-3.39-22.55-2.54-25.77-8.5,6.46-8.5,6.46-3.4,12.88-7.65,17.71-26.34,3.22-26.34,3.22L67,254.38H56.82s16.48-74.77,13.08-78.8-10.17,3.22-10.17,3.22l-6.81-6.45C57.76,168.61,62.78,163.91,69.9,163.5Z"/><path class="cls-1" d="M97,185c-4.88-.1-11.9,4.51-12.38,4.51l-4.21,15.37s10.57,2.29,15.72-1c4.28-2.71,8-14.57,3.78-18A4.62,4.62,0,0,0,97,185Z"/><path class="cls-1" d="M329.73,203.19c-.45,1.36,7.62,5.43,9.91,1.42.91-1.6-4.21-12-4.21-12Z"/><path class="cls-1" d="M304.44,182.4h0c-1.94,1.55-3.63,6.83-3.67,10.41,0,0,7.62-9.51,7.32-10.57S306.37,180.85,304.44,182.4Z"/><path class="cls-1" d="M203.26,185c-6.4.12-11.34,9.66-10.63,15,.54,4.11,6.22,2.9,8.34.08l4.34-14.77a6.25,6.25,0,0,0-2.05-.32Z"/><path class="cls-1" d="M176.13,146.57h-.26c-5.69.76-9.08,37.07-7.82,37.46C168.05,184,180.19,146.89,176.13,146.57Z"/><path class="cls-1" d="M241.14,184.54c-3.13.08-6.58,1.06-8.49,3.34-2.37,2.81-5.63,6.92-4.43,12.17,1.27,5.6,12.79,3.62,13.64,1.17L245.72,185C244.53,184.14,243.57,184.47,241.14,184.54Z"/><path d="M289.37,157.09c2.92,3.75.83,10.77-5.91,10.11a5.8,5.8,0,0,1-.6-.13,5.9,5.9,0,0,0,4,2.21C295.41,170.12,296.5,158.61,289.37,157.09Z"/><path d="M196.43,202.61a2.93,2.93,0,0,1-.12-.53c-.62-4.7,3.11-12.61,8.35-14.56l.65-2.21a6.25,6.25,0,0,0-2.05-.32h0c-6.4.12-11.34,9.66-10.63,15C192.91,202.14,194.58,202.83,196.43,202.61Z"/><path d="M215.7,177.9s-9.15,25.33-5.75,24.53a7.08,7.08,0,0,0,2.94.34c.29-5.61,6.49-22.79,6.49-22.79-.21-1.39-1.9-2.52-4.28-3.26A2.42,2.42,0,0,1,215.7,177.9Z"/><path d="M232.5,203.45a3.8,3.8,0,0,1-.6-1.32c-1.2-5.25,2.06-9.36,4.42-12.18,1.92-2.27,5.37-3.25,8.49-3.33l.53,0,.38-1.59c-1.19-.86-2.15-.53-4.58-.46-3.13.08-6.58,1.06-8.49,3.34-2.37,2.81-5.63,6.92-4.43,12.17C228.67,202,230.41,203.05,232.5,203.45Z"/><path d="M170.54,199.78c1.64,4,2.94,6,5.62,5.94a20.22,20.22,0,0,1-1.94-3.86c9.47-10.5,24.08-62,7.25-66C192.1,146.43,179.18,190.19,170.54,199.78Z"/><path d="M147.47,202.67c.67.64,2.54,0,4.5-1.33l6.09-25.45h-4.18Z"/><path d="M123.75,214.48c.44,1,1,1.7,1.67,1.83a41.91,41.91,0,0,0,8.29.29l.77-2.37A78.25,78.25,0,0,1,123.75,214.48Z"/><path d="M176.61,152.34c.54-3.4.52-5.69-.48-5.77h-.26c-5.69.76-9.08,37.07-7.82,37.46,0,0,2.59-7.93,5-16.5C173.91,161.76,175.13,156,176.61,152.34Z"/><path d="M342.78,177.56,339,185.5c4.06,6.18,7.86,12.4,9.13,19.11,0,0,1.75.82,3.57,1.63-1.35-6.54-5.06-12.62-9-18.66l4.26-8.85Z"/><path d="M333.63,205.9c-.19-.24-.28-.46-.22-.63l4.23-7.81c-1.1-2.56-2.21-4.81-2.21-4.81l-5.7,10.54C329.5,203.87,331.39,205.21,333.63,205.9Z"/><path d="M252.58,203.76c.84.38,1.93,1.5,3.59,1.73-.14-5.35,19.23-69.82,19.23-69.82l-4.31,0C267.61,147.33,251,203.08,252.58,203.76Z"/><path d="M302.45,202a6.83,6.83,0,0,0,4.6,3.38,5,5,0,0,1-.93-1.3c15.11-10.71,18.32-26.53,8.66-28.8C319.41,180.44,315.11,193,302.45,202Z"/><path d="M284,176.17c-1.89,6.7-7.25,27.3-1.55,26.62.46,0,.92-.13,1.37-.22-1.48-6.82,4.46-26.4,4.46-26.4Z"/><path d="M304.44,182.4h0c-1.94,1.55-3.63,6.83-3.67,10.41,0,0,7.62-9.51,7.32-10.57S306.37,180.85,304.44,182.4Z"/><path d="M297.14,207.35c-4.32,4.28-10,7.73-15.7,7.15a6,6,0,0,1-.88-.15,7.12,7.12,0,0,0,4.56,2.23c5.13.52,10.25-2.23,14.37-5.91A16.64,16.64,0,0,1,297.14,207.35Z"/><path d="M272.27,205.23s-5.63,10.85-17.43,10.09a29,29,0,0,1-7.71-1.38c1.35,1.32,4.42,3,11.39,3.46,8.62.56,13.93-5.07,16.18-8.15A30.65,30.65,0,0,0,272.27,205.23Z"/><path d="M242.38,210.22s-7.64,9.23-21.65.37c-2.79,4.4-6.83,4-9.93,2.72,2.38,1.73,9.42,6,13.6-.64,11.34,7.16,18.5,2.5,20.83.45C242.63,211.73,242.38,210.22,242.38,210.22Z"/><path d="M354.21,207.81c-2.11,2.84-2.73,5-4.61,6.27-5-1.57-5.91-2.39-6-2.77-2.55,3.75-9.34,5.16-14.71,3.27,5.36,4.53,15.2,3.51,18.39-1.19.05.38,1,1.2,6,2.77,2-1.37,2.53-3.61,4.89-6.65C357.12,209.11,355.54,208.41,354.21,207.81Z"/><path d="M206.29,210.59s-8.07,7.24-17.84,1.2c-3.81,2.75-12.38,5-19,2.49a13,13,0,0,0,2.53,1.58c6.75,3.32,16.13.93,20.16-2a15.1,15.1,0,0,0,17.64-1A19,19,0,0,1,206.29,210.59Z"/><path d="M323.11,210c-3.35,2.19-11.28,6.32-15.38,4.94-1.24-.42-2.39-.75-3.5-1.17,2.18,1.83,4.5,2.34,7.18,3.25,3.69,1.24,10.45-2,14.21-4.22A9.52,9.52,0,0,1,323.11,210Z"/><path d="M128.54,192.9c0,5.85-1.56,11.54,3.74,10.92-.59-2.09-.06-5.44-.06-8.84,0-8.9,1.28-18.64-5.51-19.46C129.27,179,128.54,186.19,128.54,192.9Z"/><path d="M84.48,205.48l3.79-13.89c.49,0,7.51-4.61,12.39-4.51l.18,0a4.22,4.22,0,0,0-1-1.18A4.62,4.62,0,0,0,97,185c-4.88-.1-11.9,4.51-12.38,4.51l-4.21,15.37A39.28,39.28,0,0,0,84.48,205.48Z"/><path d="M79.26,178.8s1.63-.78,4.09-1.75c0-5-2.33-9.87-7.12-11.14C79.37,168.92,80.32,174.25,79.26,178.8Z"/><path d="M109,183.63a36.15,36.15,0,0,1,2.51-3.27,10.27,10.27,0,0,0-4.77-4.32,8.27,8.27,0,0,0-1.06-.38A9.61,9.61,0,0,1,109,183.63Z"/><path d="M118.7,192.79a28,28,0,0,1,.5-4.33c.85-3.22-8.5,6.46-8.5,6.46s-3.4,12.88-7.65,17.71-26.34,3.22-26.34,3.22L67,254.38H61c-.29,1.33-.45,2.08-.45,2.08H70.7l9.69-38.53s22.09,1.62,26.34-3.22S114.38,197,114.38,197,116.54,194.76,118.7,192.79Z"/><path d="M162.35,204c-2.52,2.38-5.24,5.57-8.73,7.38S144,214,144,214l-13.72,40.49H114.82l-.44,2.08h19.55l13.72-40.49s6.16-.84,9.65-2.64a25.63,25.63,0,0,0,6-4.69A22.9,22.9,0,0,1,162.35,204Z"/><path d="M60.46,178.08l2.95,2.8s3.57-3.8,6.83-4.35a2.18,2.18,0,0,0-.34-.95C67.18,172.36,62.29,176.36,60.46,178.08Z"/><polygon class="cls-1" points="259.44 240.4 256.4 247.48 262.5 247.48 259.44 240.4"/><path class="cls-1" d="M283.43,239.64h-3.49v12h3.49a5.77,5.77,0,0,0,6.15-6v-.05A5.81,5.81,0,0,0,283.43,239.64Z"/><path class="cls-1" d="M344.74,239.64h-3.49v12h3.49a5.77,5.77,0,0,0,6.15-6v-.05A5.81,5.81,0,0,0,344.74,239.64Z"/><path class="cls-1" d="M309.33,239.64H304.8v6h4.55c2.23,0,3.64-1.17,3.64-3v0C313,240.68,311.63,239.64,309.33,239.64Z"/></svg>