<svg id="svg35" xmlns="http://www.w3.org/2000/svg" viewBox="0 0 400 400"><defs><style>.cls-1{fill:#903;}.cls-2{fill:#211e1e;}.cls-3{fill:none;}</style></defs><title>pyladies</title><path class="cls-1" d="M16.93,121h7.12l-.07,1.4H21.52a.84.84,0,1,0,0,1.68h2.37l-3.17,61.84H0V400H400V185.93h-8.2a7.48,7.48,0,0,0-.29-1.7,17.93,17.93,0,0,0-1.27-2c.82-.54,1.74-1.35,1.56-2.45a6.31,6.31,0,0,0-1.07-2.47,28.32,28.32,0,0,1-2.36-4.21c-.27-.74.2-1.67,0-2.44a8.88,8.88,0,0,0-1.28-2.92c-.18-.25.61-.93.69-1.28a2.06,2.06,0,0,0-.15-2.57c-.42-.34-.48-.88-1.11-.33-.26.36-.46.4-.59-.07a.58.58,0,0,0-.71-.47c-.38-.13-.54.07-.61.43a10.32,10.32,0,0,0-2.16-1.5c-1.12-.16-1.64,1-1.35,2.08a3.71,3.71,0,0,0,.82,2c.09.66-.06,1.37.07,2a4.75,4.75,0,0,0,.85,1.68c.44.84-1.24.47-1.95-.75a14.6,14.6,0,0,0-.31-1.52,5.14,5.14,0,0,0-.81-.6.8.8,0,0,0-.41,0l0-5.21c6.15-.54,10.87-3.88,10.9-7.95,0-4.5-5.67-8.18-12.72-8.24s-12.79,3.52-12.83,8c0,4.08,4.63,7.49,10.76,8.14L375.33,183l-1.95,2.93H361l-5.21-14h-16.9v14h-52V172H270l-5.22,14H237.85a59.67,59.67,0,0,0,26-35.74c3.15-1.9,4.94-3.27,4.94-3.27a25,25,0,0,1-3.85-2.08,60.29,60.29,0,0,0,.72-9.27A59.59,59.59,0,1,0,149.16,153.4a12.56,12.56,0,0,1-5.85,6,33.52,33.52,0,0,0,7.91-.43,59.75,59.75,0,0,0,23,27h-40.9V175.25a.84.84,0,0,0-.83-.84h-1.64V160.24H48.94v14.17H47.31a.85.85,0,0,0-.84.84v10.68h-15l-3.17-61.84H31a.84.84,0,0,0,0-1.68H28.24l-.07-1.4h6.62a.84.84,0,1,0,0-1.68H33.65V115.9a.83.83,0,0,0-.24-.6.87.87,0,0,0-.59-.24H32l-1.3-6.81a.84.84,0,0,0-.82-.68H29V100a.83.83,0,0,0-.83-.83H27v-1.4H29a.83.83,0,0,0,.83-.83.84.84,0,0,0-.83-.84H27V73a.85.85,0,0,0-.84-.84.84.84,0,0,0-.83.84v23.1H23.21a.85.85,0,0,0-.84.84.84.84,0,0,0,.84.83h2.07v1.4H24a.83.83,0,0,0-.83.83v7.59h-.81a.84.84,0,0,0-.82.68l-1.3,6.81H19.4a.83.83,0,0,0-.83.84v3.43H16.93a.84.84,0,1,0,0,1.68ZM379.3,173.82a6.05,6.05,0,0,0,1.54,1.76c.24.18.77,0,.8.38l.78,2.54a5,5,0,0,0,1.15,2.26c.32.31.64.58,0,.82-.62.82,1.94,2.23,2,2.59a5,5,0,0,1-.84,1.76h-3.66l-1.86-2.9Zm-144.45,150h-2.4V314l-4.32,6.45h-.08L223.78,314v9.77h-2.37V310.12H224l4.16,6.46,4.16-6.46h2.56Zm18,0-1.39-3.3H245l-1.41,3.3h-2.46l6-13.77h2.22l6,13.77ZM274,317c0,3.85-3,6.84-7.27,6.84h-5.09V310.12h5.09c4.3,0,7.27,2.95,7.27,6.79Zm15.6,6.84L286.23,319h-3v4.77h-2.4V310.12h6.09a5.56,5.56,0,0,1,3.95,1.36,4.16,4.16,0,0,1,1.13,2.95v0a4.1,4.1,0,0,1-3.24,4.14l3.69,5.18Zm11.8,0H299V310.12h2.4ZM321.32,317c0,3.85-3,6.84-7.27,6.84H309V310.12h5.1c4.3,0,7.27,2.95,7.27,6.79Zm-54.11-70.12c7.09-.23,6.67,10.26-.47,9.55C261.64,255.87,260.13,247.06,267.21,246.83ZM161.53,155a30.76,30.76,0,0,0,11.63-13.64,123.75,123.75,0,0,0,38.16,18.08c14.06,4,27.54,1.48,37.9-2.3-3.55,9.51-11.3,28.66-18.06,34.14-5.24,4.25-18.57,11.21-25.39,11.75-6.81-.54-20.15-7.5-25.39-11.75C173.07,185.37,164.59,163.43,161.53,155Zm-41,7.72a2.57,2.57,0,1,1-2.57,2.57A2.57,2.57,0,0,1,120.51,162.74Zm-.92,9.19a4.08,4.08,0,0,1,4.08,4.08v9.4a.56.56,0,0,1-.56.55h-7a.56.56,0,0,1-.56-.55V176A4.08,4.08,0,0,1,119.59,171.93Zm-6-9.19a2.57,2.57,0,1,1-2.58,2.57A2.58,2.58,0,0,1,113.56,162.74Zm-7,0a2.57,2.57,0,1,1-2.57,2.57A2.57,2.57,0,0,1,106.6,162.74ZM102.94,176a4.08,4.08,0,0,1,8.16,0v9.4a.56.56,0,0,1-.56.55h-7a.56.56,0,0,1-.56-.55Zm6.17,89.33s13.11-6.22,18.36-3.74a7.5,7.5,0,0,1,4.59,7.47s5.58-8.49,10.83-7.87,4.26,8.15,4.26,15c0,4.66-1.3,9.21,3.29,8.39s8.79-23.12,8.79-23.12h7.87l-5.34,22.27c.87.83,4.3-1.06,6.35-3.71s2.66-7.25,2.66-7.25-2-41.69,12.36-42.39h0a5.3,5.3,0,0,1,.69,0c15.09.62,3.3,42.75-4.25,51.12,1.8,4.37,3.05,5.68,7.6,3.69,1.92-4.33,1-16.21,11.24-22.19,5.17-3,15.55-1.57,16,1.61,0,0-7.07,19.56-4.44,18.94,8.15,2.53,5.42-11.54,12.48-17.82,5.24-4.43,11.14-3.72,16.39-3.62l9.62-31.62,9.19-.08s-16.1,53.58-14.77,54.17,3.31,3.43,8-1.37c5.2-5.31,9.54-21.54,9.54-21.54h7.2s-6.91,22.78-1.66,22.16a18.11,18.11,0,0,0,9.12-4.19s-1-17.52,9.57-18.79c11.37-1.38,9.91,13-3.27,22.36,2,4.25,12,4.06,14.75-.84s6.13-12.27,10.17-20.58l6.55,1.86-3.28,6.83c3.13,4.77,6.06,9.57,7,14.75,0,0,3.31,1.55,4.95,2.18-1.82,2.34-2.25,4.08-3.77,5.13-3.84-1.21-4.57-1.84-4.61-2.13-2.85,4.18-12.55,4.6-15.85-1-2.58,1.68-8.7,4.88-11.87,3.81s-5.7-1.42-8.18-5.85c-3.33,3.3-7.72,6-12.11,5.52s-5.3-5-7.08-7.16c0,0-4.35,8.38-13.46,7.79s-9.61-3.94-9.61-3.94-5.9,7.13-16.72.29c-3.94,6.22-11.14,0-11.14,0a11.71,11.71,0,0,1-13.78.92c-3.11,2.26-10.35,4.1-15.57,1.54-4-2-4.15-4.42-4.58-7.54-1.94,1.84-4.05,4.3-6.74,5.69a28.65,28.65,0,0,1-7.45,2l-10.59,31.26h-15.1l1.32-6.23,9.09-.69,8-24.18s-6.56.62-9.84,0-2.62-17.41-2-19.9-6.57,5-6.57,5-2.62,10-5.9,13.68-20.33,2.48-20.33,2.48l-7.48,29.74H91.78s12.73-57.72,10.1-60.83S94,265.34,94,265.34l-5.26-5c3.74-2.88,7.61-6.51,13.11-6.82C108.11,253.46,110.33,260.08,109.11,265.34Zm-27-95a7.63,7.63,0,0,1,15.25,0v15a.56.56,0,0,1-.56.55H82.69a.55.55,0,0,1-.55-.55Zm-8.66-7.62a2.57,2.57,0,1,1-2.57,2.57A2.57,2.57,0,0,1,73.48,162.74Zm-.87,9.19A4.08,4.08,0,0,1,76.69,176v9.4a.56.56,0,0,1-.56.55h-7a.56.56,0,0,1-.56-.55V176A4.08,4.08,0,0,1,72.61,171.93Zm-6.09-9.19A2.57,2.57,0,1,1,64,165.31,2.58,2.58,0,0,1,66.52,162.74Zm-6.95,0A2.57,2.57,0,1,1,57,165.31,2.57,2.57,0,0,1,59.57,162.74ZM56,176a4.08,4.08,0,0,1,8.16,0v9.4a.56.56,0,0,1-.56.55h-7a.56.56,0,0,1-.56-.55Z"/><polygon class="cls-1" points="337.25 171.97 332.43 171.97 337.25 185.75 337.25 171.97"/><polygon class="cls-1" points="350.31 157.22 338.92 157.22 338.92 170.29 355.19 170.29 350.31 157.22"/><path class="cls-1" d="M338.92,139.08h4.62l-4.28-11.47s0,0,0,0l0-.06a1.27,1.27,0,0,0-.13-.19l-.07-.06-.1-.07Z"/><path class="cls-1" d="M320.94,139.08h16.31v-12l-19.34,0h0a.85.85,0,0,0-.68.36.82.82,0,0,0-.11.76Z"/><polygon class="cls-1" points="338.92 155.55 349.69 155.55 344.17 140.75 338.92 140.75 338.92 155.55"/><polygon class="cls-1" points="326.7 155.55 337.25 155.55 337.25 140.75 321.52 140.75 326.7 155.55"/><polygon class="cls-1" points="327.28 157.22 331.85 170.29 337.25 170.29 337.25 157.22 327.28 157.22"/><polygon class="cls-1" points="286.88 170.29 286.88 157.22 275.48 157.22 270.6 170.29 286.88 170.29"/><polygon class="cls-1" points="288.55 170.29 293.94 170.29 298.51 157.22 288.55 157.22 288.55 170.29"/><path class="cls-1" d="M286.88,139.08V127.21a.41.41,0,0,0-.11.07l-.07.06a1.27,1.27,0,0,0-.13.19l0,.06s0,0,0,0l-4.28,11.47Z"/><polygon class="cls-1" points="288.55 140.75 288.55 155.55 299.09 155.55 304.27 140.75 288.55 140.75"/><path class="cls-1" d="M288.55,139.08h16.3l3.82-10.93a.82.82,0,0,0-.11-.76.85.85,0,0,0-.68-.36h0l-19.33,0Z"/><polygon class="cls-1" points="281.63 140.75 276.1 155.55 286.88 155.55 286.88 140.75 281.63 140.75"/><polygon class="cls-1" points="293.36 171.97 288.55 171.97 288.55 185.74 293.36 171.97"/><path class="cls-1" d="M122.78,270.12c-3.76-.07-9.18,3.49-9.56,3.49L110,285.47s8.16,1.77,12.13-.75c3.31-2.09,6.17-11.25,2.92-13.88A3.55,3.55,0,0,0,122.78,270.12Z"/><path class="cls-1" d="M302.47,284.17c-.35,1,5.88,4.19,7.65,1.09.7-1.24-3.25-9.23-3.25-9.23Z"/><path class="cls-1" d="M282.94,268.12h0c-1.5,1.19-2.8,5.27-2.83,8,0,0,5.88-7.34,5.65-8.16S284.44,266.92,282.94,268.12Z"/><path class="cls-1" d="M204.83,270.12c-4.94.09-8.75,7.45-8.21,11.58.42,3.18,4.81,2.24,6.45.06l3.34-11.39a4.65,4.65,0,0,0-1.58-.25Z"/><path class="cls-1" d="M183.89,240.46a.67.67,0,0,0-.2,0c-4.39.58-7,28.61-6,28.91C177.65,269.37,187,240.7,183.89,240.46Z"/><path class="cls-1" d="M234.07,269.77c-2.41.06-5.08.82-6.55,2.57-1.83,2.18-4.34,5.35-3.42,9.4,1,4.33,9.87,2.8,10.53.91l3-12.53C236.69,269.46,236,269.72,234.07,269.77Z"/><path d="M271.31,248.58a4.86,4.86,0,0,1-4.57,7.8,3.78,3.78,0,0,1-.46-.1,4.51,4.51,0,0,0,3.1,1.7C276,258.64,276.81,249.75,271.31,248.58Z"/><path d="M199.56,283.72a2.46,2.46,0,0,1-.1-.41c-.47-3.63,2.41-9.74,6.46-11.24l.49-1.7a4.65,4.65,0,0,0-1.58-.25h0c-4.94.09-8.75,7.45-8.21,11.58C196.84,283.36,198.14,283.89,199.56,283.72Z"/><path d="M214.44,264.64s-7.07,19.56-4.44,18.94a5.42,5.42,0,0,0,2.27.26c.22-4.33,5-17.59,5-17.59-.16-1.08-1.47-1.95-3.31-2.52A2,2,0,0,1,214.44,264.64Z"/><path d="M227.41,284.37a2.89,2.89,0,0,1-.47-1c-.92-4.06,1.59-7.23,3.42-9.4,1.47-1.76,4.14-2.51,6.55-2.58l.41,0,.29-1.23c-.92-.66-1.66-.4-3.54-.35-2.41.06-5.08.82-6.55,2.57-1.83,2.18-4.34,5.35-3.42,9.4C224.45,283.27,225.79,284.06,227.41,284.37Z"/><path d="M179.57,281.53c1.27,3.08,2.27,4.64,4.34,4.59a16.7,16.7,0,0,1-1.5-3c7.31-8.11,18.59-47.87,5.6-50.95C196.22,240.35,186.25,274.13,179.57,281.53Z"/><path d="M161.76,283.76c.52.5,2,0,3.47-1l4.71-19.65h-3.23Z"/><path d="M143.45,292.88c.34.8.76,1.31,1.29,1.41a31.58,31.58,0,0,0,6.4.22l.6-1.82A61.13,61.13,0,0,1,143.45,292.88Z"/><path d="M184.26,244.91c.41-2.63.4-4.39-.37-4.45a.67.67,0,0,0-.2,0c-4.39.58-7,28.61-6,28.91,0,0,2-6.12,3.85-12.73A57.43,57.43,0,0,1,184.26,244.91Z"/><path d="M312.54,264.38l-3,6.13c3.13,4.77,6.06,9.57,7,14.75,0,0,1.35.64,2.76,1.26-1-5-3.91-9.74-7-14.41l3.29-6.82Z"/><path d="M305.48,286.26c-.15-.19-.22-.35-.17-.49l3.26-6c-.85-2-1.7-3.71-1.7-3.71l-4.4,8.14C302.29,284.69,303.75,285.73,305.48,286.26Z"/><path d="M242.91,284.61a8.24,8.24,0,0,0,2.76,1.33c-.1-4.13,14.85-53.9,14.85-53.9l-3.32,0C254.51,241,241.72,284.08,242.91,284.61Z"/><path d="M281.4,283.24a5.29,5.29,0,0,0,3.56,2.61,3.91,3.91,0,0,1-.72-1c11.66-8.27,14.14-20.49,6.68-22.24C294.5,266.6,291.18,276.31,281.4,283.24Z"/><path d="M267.18,263.31c-1.46,5.17-5.6,21.07-1.2,20.55.36,0,.71-.1,1.06-.17-1.14-5.27,3.45-20.38,3.45-20.38Z"/><path d="M282.94,268.12h0c-1.5,1.19-2.8,5.27-2.83,8,0,0,5.88-7.34,5.65-8.16S284.44,266.92,282.94,268.12Z"/><path d="M277.3,287.38c-3.33,3.3-7.72,6-12.11,5.52a6.38,6.38,0,0,1-.68-.12A5.45,5.45,0,0,0,268,294.5c4,.41,7.91-1.72,11.09-4.56A13.35,13.35,0,0,1,277.3,287.38Z"/><path d="M258.11,285.74s-4.35,8.38-13.46,7.79a22.26,22.26,0,0,1-6-1.07c1,1,3.41,2.33,8.79,2.68,6.66.42,10.76-3.92,12.49-6.3A23.25,23.25,0,0,0,258.11,285.74Z"/><path d="M235,289.59s-5.9,7.13-16.72.29c-2.15,3.39-5.28,3.08-7.67,2.1,1.84,1.33,7.27,4.61,10.51-.5,8.75,5.53,14.28,1.93,16.07.35C235.23,290.75,235,289.59,235,289.59Z"/><path d="M321.36,287.74c-1.63,2.19-2.1,3.83-3.55,4.83-3.84-1.21-4.57-1.84-4.61-2.13-2,2.89-7.22,4-11.36,2.52,4.14,3.5,11.73,2.71,14.2-.92,0,.3.77.92,4.61,2.14,1.52-1.06,2-2.79,3.77-5.14C323.61,288.73,322.39,288.2,321.36,287.74Z"/><path d="M207.18,289.88a11.71,11.71,0,0,1-13.78.92c-2.94,2.13-9.56,3.89-14.68,1.92a10.26,10.26,0,0,0,1.95,1.23c5.22,2.56,12.46.71,15.57-1.54a11.66,11.66,0,0,0,13.62-.79A14.34,14.34,0,0,1,207.18,289.88Z"/><path d="M297.35,289.42c-2.58,1.68-8.7,4.88-11.87,3.81-1-.33-1.85-.58-2.7-.91,1.69,1.42,3.48,1.81,5.54,2.51,2.85,1,8.07-1.52,11-3.25A7.62,7.62,0,0,1,297.35,289.42Z"/><path d="M147.15,276.22c0,4.52-1.2,8.91,2.89,8.44-.46-1.62,0-4.21,0-6.84,0-6.86,1-14.39-4.25-15C147.71,265.49,147.15,271,147.15,276.22Z"/><path d="M113.13,285.93l2.94-10.72c.37,0,5.79-3.56,9.55-3.48h.15a3.08,3.08,0,0,0-.74-.9,3.55,3.55,0,0,0-2.25-.72c-3.76-.07-9.18,3.49-9.56,3.49L110,285.47A28.57,28.57,0,0,0,113.13,285.93Z"/><path d="M109.11,265.34s1.26-.6,3.15-1.35c0-3.84-1.8-7.62-5.5-8.61C109.19,257.71,109.92,261.82,109.11,265.34Z"/><path d="M132.06,269.07a28.31,28.31,0,0,1,1.93-2.53,7.9,7.9,0,0,0-3.68-3.33,5,5,0,0,0-.82-.3A7.45,7.45,0,0,1,132.06,269.07Z"/><path d="M139.55,276.14a22.31,22.31,0,0,1,.39-3.35c.65-2.48-6.57,5-6.57,5s-2.62,10-5.9,13.68-20.33,2.48-20.33,2.48l-7.48,29.74H95c-.22,1-.35,1.61-.35,1.61h7.88L110,295.54s17,1.25,20.33-2.48,5.91-13.67,5.91-13.67S137.89,277.66,139.55,276.14Z"/><path d="M173.25,284.8c-1.94,1.84-4.05,4.3-6.74,5.69a28.65,28.65,0,0,1-7.45,2l-10.59,31.26H136.55l-.33,1.6h15.09l10.59-31.25a29.09,29.09,0,0,0,7.45-2,19.94,19.94,0,0,0,4.63-3.62A16.66,16.66,0,0,1,173.25,284.8Z"/><path d="M94.59,264.78l2.28,2.16s2.76-2.93,5.27-3.36a1.6,1.6,0,0,0-.26-.73C99.78,260.36,96,263.45,94.59,264.78Z"/><path class="cls-2" d="M236.06,169.36s4.16-3.06,3.91-4.09-5.88,1.63-5.88,1.63,1.78-1.86,1.52-2.41-3.7,1.54-3.7,1.54,1-1.36.8-1.75-2.94.72-2.94.72.83-1.13.46-1.36-2.82.78-2.82.78a10.27,10.27,0,0,0-3,.19c-4.2,1.09-7.9,7.55-7.9,7.55a16.23,16.23,0,0,1,3.85-3.62,6.24,6.24,0,0,0-.15,1.3,5.86,5.86,0,1,0,11.72,0,6.12,6.12,0,0,0-.09-1,13.94,13.94,0,0,1,4,3.73l-.08.48s7.85-4.43,7.67-5.49S236.06,169.36,236.06,169.36Zm-13.31,2a1.52,1.52,0,1,1,1.52-1.52A1.52,1.52,0,0,1,222.75,171.39Z"/><path class="cls-2" d="M195.05,172.16s-3.7-6.46-7.9-7.55a10.27,10.27,0,0,0-3-.19s-2.45-1-2.82-.78.46,1.36.46,1.36-2.76-1.11-2.94-.72.8,1.75.8,1.75-3.44-2.09-3.7-1.54,1.52,2.41,1.52,2.41-5.62-2.66-5.88-1.63,3.91,4.09,3.91,4.09-7.17-2.83-7.35-1.76,7.67,5.49,7.67,5.49l-.08-.48a13.94,13.94,0,0,1,4-3.73,6.12,6.12,0,0,0-.09,1,5.86,5.86,0,1,0,11.72,0,6.24,6.24,0,0,0-.15-1.3A16.23,16.23,0,0,1,195.05,172.16Zm-12.89-.77a1.52,1.52,0,1,1,1.51-1.52A1.52,1.52,0,0,1,182.16,171.39Z"/><path class="cls-2" d="M243.62,170.89l-.73,1.43a11.83,11.83,0,0,1-3.22,4.75,20,20,0,0,1-4.27,2.84c-1.1-1.13-5.57-1.67-13.32-1.67-1.33,0-12.9,0-13.55,1.7a4.34,4.34,0,0,0-5.59-.08c-1-1.58-12.2-1.62-13.5-1.62-7.76,0-12.22.54-13.32,1.67a20,20,0,0,1-4.27-2.84,11.83,11.83,0,0,1-3.22-4.75l-.73-1.43a10.55,10.55,0,0,0,3.33,6.88A14.29,14.29,0,0,0,175.9,181c.5,4.45,6.5,9.57,13.47,9.57,7.15,0,13.29-5.39,13.5-9.92.2,0,.38-.09.59-.12a4.35,4.35,0,0,1,2.23-.61,4.41,4.41,0,0,1,2.23.61c.26,0,.48.1.72.15.25,4.52,6.37,9.89,13.51,9.89,7,0,13-5.12,13.47-9.58a14.07,14.07,0,0,0,4.67-3.2A10.6,10.6,0,0,0,243.62,170.89ZM202,180.72c0,3.35-5,8.51-11.58,8.51s-11.57-5.16-11.58-8.43c.23-.5,3.51-1.24,11.65-1.24,6.31,0,10.55.55,11.51,1Zm19.07,8.51c-6.6,0-11.57-5.16-11.57-8.51v-.18c1-.43,5.2-1,11.51-1,8.13,0,11.42.74,11.65,1.24C232.66,184.07,227.69,189.23,221.08,189.23Z"/><path class="cls-3" d="M107,171.93a4.08,4.08,0,0,0-4.08,4.08v9.4a.56.56,0,0,0,.56.55h7a.56.56,0,0,0,.56-.55V176A4.08,4.08,0,0,0,107,171.93Z"/><path class="cls-3" d="M72.61,171.93A4.08,4.08,0,0,0,68.53,176v9.4a.56.56,0,0,0,.56.55h7a.56.56,0,0,0,.56-.55V176A4.08,4.08,0,0,0,72.61,171.93Z"/><path class="cls-3" d="M66.52,162.74a2.57,2.57,0,1,0,2.58,2.57A2.57,2.57,0,0,0,66.52,162.74Z"/><path class="cls-3" d="M119.59,171.93a4.08,4.08,0,0,0-4.08,4.08v9.4a.56.56,0,0,0,.56.55h7a.56.56,0,0,0,.56-.55V176A4.08,4.08,0,0,0,119.59,171.93Z"/><path class="cls-3" d="M113.56,162.74a2.57,2.57,0,1,0,2.57,2.57A2.58,2.58,0,0,0,113.56,162.74Z"/><path class="cls-3" d="M73.48,167.88a2.57,2.57,0,1,0-2.57-2.57A2.57,2.57,0,0,0,73.48,167.88Z"/><path class="cls-3" d="M120.51,167.88a2.57,2.57,0,1,0-2.57-2.57A2.57,2.57,0,0,0,120.51,167.88Z"/><path class="cls-3" d="M106.6,167.88a2.57,2.57,0,1,0-2.57-2.57A2.57,2.57,0,0,0,106.6,167.88Z"/><path class="cls-3" d="M60,171.93A4.08,4.08,0,0,0,56,176v9.4a.56.56,0,0,0,.56.55h7a.56.56,0,0,0,.56-.55V176A4.08,4.08,0,0,0,60,171.93Z"/><path class="cls-3" d="M89.76,147.46a3.1,3.1,0,1,0-3.1-3.1A3.1,3.1,0,0,0,89.76,147.46Z"/><path class="cls-3" d="M59.57,167.88A2.57,2.57,0,1,0,57,165.31,2.57,2.57,0,0,0,59.57,167.88Z"/><path class="cls-3" d="M211.32,159.46a123.75,123.75,0,0,1-38.16-18.08A30.76,30.76,0,0,1,161.53,155c3.06,8.41,11.54,30.35,18.85,36.28,5.24,4.25,18.58,11.21,25.39,11.75,6.82-.54,20.15-7.5,25.39-11.75,6.76-5.48,14.51-24.63,18.06-34.14C238.86,160.94,225.38,163.43,211.32,159.46Z"/><path class="cls-3" d="M89.76,162.74a7.63,7.63,0,0,0-7.62,7.62v15a.55.55,0,0,0,.55.55H96.83a.56.56,0,0,0,.56-.55v-15A7.63,7.63,0,0,0,89.76,162.74Z"/><path class="cls-3" d="M383.55,181.58c.66-.24.34-.51,0-.82a5,5,0,0,1-1.15-2.26l-.78-2.54c0-.37-.56-.2-.8-.38a6.05,6.05,0,0,1-1.54-1.76l-.08,9.21,1.86,2.9h3.66a5,5,0,0,0,.84-1.76C385.49,183.81,382.93,182.4,383.55,181.58Z"/><path class="cls-1" d="M44.84,159.13h90.08a.84.84,0,0,0,.84-.84v-2.88a.84.84,0,0,0-.84-.84H129v-2.18a4.07,4.07,0,1,0-8.14,0v2.18h-1.2v-2.18a4.08,4.08,0,1,0-8.15,0v2.18h-5.75a4.85,4.85,0,0,0-1.12-2.9,3.69,3.69,0,0,0-2.46-1.18c-.32-.78-.65-2-.28-2.6.19-.32.66-.49,1.38-.49a.84.84,0,0,0,.84-.83v-2.06a.85.85,0,0,0-.84-.84H97.51v-4.92a.84.84,0,0,0-.84-.83H95.24v-1.23a.83.83,0,0,0-.83-.83h-1a3.58,3.58,0,0,0-7,0h-1a.84.84,0,0,0-.84.83v1.23H83.1a.83.83,0,0,0-.84.83v4.92H76.51a.84.84,0,0,0-.83.84v2.06a.83.83,0,0,0,.83.83c.73,0,1.19.17,1.39.49.36.6,0,1.82-.29,2.6a3.71,3.71,0,0,0-2.46,1.18,4.9,4.9,0,0,0-1.11,2.9H68.29v-2.18a4.08,4.08,0,1,0-8.15,0v2.18h-1.2v-2.18a4.07,4.07,0,1,0-8.14,0v2.18h-6a.84.84,0,0,0-.83.84v2.88A.84.84,0,0,0,44.84,159.13Zm44.92-17.87a3.1,3.1,0,1,1-3.1,3.1A3.1,3.1,0,0,1,89.76,141.26Z"/><polygon class="cls-1" points="248.2 312.89 245.86 318.36 250.56 318.36 248.2 312.89"/><path class="cls-1" d="M266.72,312.31H264v9.29h2.69a4.45,4.45,0,0,0,4.75-4.61v0A4.48,4.48,0,0,0,266.72,312.31Z"/><path class="cls-1" d="M314.05,312.31h-2.69v9.29h2.69A4.46,4.46,0,0,0,318.8,317v0A4.49,4.49,0,0,0,314.05,312.31Z"/><path class="cls-1" d="M286.71,312.31h-3.49v4.59h3.51c1.72,0,2.82-.9,2.82-2.29v0C289.55,313.11,288.49,312.31,286.71,312.31Z"/></svg>